<svg xmlns="http://www.w3.org/2000/svg" xmlns:xlink="http://www.w3.org/1999/xlink" viewBox="372.62 478.86 253.71 34.93" role="img" aria-label="ZEHNOX">
<path fill="#021B8C" d="M 372.617188 485.085938 L 400.835938 485.085938 L 372.617188 508.175781 L 372.617188 513.140625 L 410.8125 513.140625 L 410.8125 507.570312 L 382.445312 507.570312 L 410.8125 484.476562 L 410.8125 479.511719 L 372.617188 479.511719 Z M 372.617188 485.085938 "/>
<path fill="#021B8C" d="M 414.550781 485.085938 L 447.605469 485.085938 L 447.605469 479.515625 L 414.550781 479.515625 Z M 414.550781 485.085938 "/>
<path fill="#021B8C" d="M 420.773438 498.789062 L 446.480469 498.789062 L 446.480469 493.214844 L 414.550781 493.214844 L 414.550781 513.144531 L 447.605469 513.144531 L 447.605469 507.570312 L 420.773438 507.570312 Z M 420.773438 498.789062 "/>
<path fill="#021B8C" d="M 483.96875 493.214844 L 457.566406 493.214844 L 457.566406 479.511719 L 451.34375 479.511719 L 451.34375 513.140625 L 457.566406 513.140625 L 457.566406 498.785156 L 483.96875 498.785156 L 483.96875 513.140625 L 490.191406 513.140625 L 490.191406 479.511719 L 483.96875 479.511719 Z M 483.96875 493.214844 "/>
<path fill="#021B8C" d="M 529.507812 504.707031 L 499.582031 479.511719 L 493.929688 479.511719 L 493.929688 513.140625 L 500.152344 513.140625 L 500.152344 487.734375 L 530.074219 513.140625 L 535.730469 513.140625 L 535.730469 479.511719 L 529.507812 479.511719 Z M 529.507812 504.707031 "/>
<path fill="#021B8C" d="M 574.070312 496.734375 C 574.070312 498.992188 573.992188 500.886719 573.832031 502.363281 C 573.683594 503.742188 573.414062 504.84375 573.035156 505.628906 C 572.699219 506.324219 572.234375 506.824219 571.609375 507.15625 C 570.914062 507.53125 569.964844 507.78125 568.789062 507.902344 C 567.5 508.03125 565.882812 508.097656 563.992188 508.097656 L 555.773438 508.097656 C 553.878906 508.097656 552.265625 508.03125 550.976562 507.902344 C 549.800781 507.78125 548.851562 507.53125 548.152344 507.15625 C 547.53125 506.824219 547.066406 506.324219 546.730469 505.628906 C 546.347656 504.84375 546.078125 503.746094 545.933594 502.363281 C 545.773438 500.890625 545.695312 498.996094 545.695312 496.734375 L 545.695312 495.917969 C 545.695312 493.574219 545.773438 491.625 545.933594 490.125 C 546.078125 488.71875 546.347656 487.617188 546.726562 486.84375 C 547.058594 486.175781 547.511719 485.703125 548.121094 485.402344 C 548.824219 485.054688 549.777344 484.828125 550.960938 484.722656 C 552.253906 484.613281 553.875 484.554688 555.773438 484.554688 L 563.992188 484.554688 C 565.890625 484.554688 567.507812 484.613281 568.804688 484.722656 C 569.988281 484.828125 570.941406 485.054688 571.644531 485.402344 C 572.25 485.703125 572.707031 486.175781 573.035156 486.84375 C 573.417969 487.617188 573.683594 488.722656 573.832031 490.125 C 573.992188 491.632812 574.070312 493.582031 574.070312 495.917969 Z M 580.292969 496.734375 L 580.292969 495.917969 C 580.292969 493.105469 580.152344 490.699219 579.875 488.769531 C 579.585938 486.753906 579.066406 485.074219 578.332031 483.769531 C 577.5625 482.402344 576.492188 481.339844 575.15625 480.613281 C 573.882812 479.921875 572.292969 479.449219 570.417969 479.207031 C 568.636719 478.976562 566.472656 478.859375 563.992188 478.859375 L 555.773438 478.859375 C 553.289062 478.859375 551.128906 478.976562 549.34375 479.207031 C 547.472656 479.449219 545.878906 479.921875 544.609375 480.613281 C 543.273438 481.339844 542.203125 482.402344 541.433594 483.769531 C 540.699219 485.074219 540.179688 486.753906 539.890625 488.769531 C 539.609375 490.699219 539.46875 493.101562 539.46875 495.917969 L 539.46875 496.734375 C 539.46875 500.15625 539.699219 502.988281 540.15625 505.148438 C 540.644531 507.453125 541.53125 509.265625 542.792969 510.535156 C 544.054688 511.808594 545.804688 512.6875 547.992188 513.144531 C 550.03125 513.574219 552.652344 513.792969 555.773438 513.792969 L 563.992188 513.792969 C 567.113281 513.792969 569.730469 513.574219 571.773438 513.144531 C 573.957031 512.6875 575.707031 511.808594 576.972656 510.535156 C 578.234375 509.265625 579.121094 507.453125 579.609375 505.148438 C 580.0625 502.988281 580.292969 500.15625 580.292969 496.734375 "/>
<path fill="#021B8C" d="M 606.613281 495.457031 L 623.789062 479.511719 L 614.847656 479.511719 L 602.054688 491.378906 L 588.847656 479.511719 L 579.84375 479.511719 L 597.644531 495.484375 L 578.613281 513.140625 L 587.554688 513.140625 L 602.183594 499.5625 L 617.324219 513.140625 L 626.332031 513.140625 Z M 606.613281 495.457031 "/>
</svg>